<?xml version="1.0" encoding="UTF-8"?>
<!DOCTYPE svg PUBLIC "-//W3C//DTD SVG 1.1//EN" "http://www.w3.org/Graphics/SVG/1.1/DTD/svg11.dtd">
<svg version="1.1" xmlns="http://www.w3.org/2000/svg" xmlns:xlink="http://www.w3.org/1999/xlink" x="0" y="0" width="169.49" height="82.015" viewBox="0, 0, 169.49, 82.015">
  <g id="layer1">
    <g id="path4196">
      <path d="M38.58,1.001 C28.854,1.07 19.133,5.208 12.294,12.376 C0.043,24.651 -2.387,45.264 5.715,60.564 C12.629,74.406 28.313,82.813 43.332,80.689 C56.647,79.09 67.876,69.202 73.029,56.751 L82.562,62.22 C85.354,63.962 86.919,61.776 86.918,59.22 L86.735,49.001 L97.578,49.251 L104.949,56.188 L114.544,46.473 L123.316,54.845 L129.804,54.845 L138.789,45.845 L145.294,51.343 L153.572,50.996 L160.754,44.093 L168.486,36.969 C167.175,32.601 163.438,29.9 156.577,26.883 L86.217,27.438 L85.791,19.657 C85.758,16.881 82.421,15.713 80.248,17.157 L72.328,23.626 C68.159,14.585 60.757,7.111 51.586,3.501 C47.433,1.758 43.001,0.97 38.58,1.001 z" fill="#FFDD55"/>
      <path d="M38.58,1.001 C28.854,1.07 19.133,5.208 12.294,12.376 C0.043,24.651 -2.387,45.264 5.715,60.564 C12.629,74.406 28.313,82.813 43.332,80.689 C56.647,79.09 67.876,69.202 73.029,56.751 L82.562,62.22 C85.354,63.962 86.919,61.776 86.918,59.22 L86.735,49.001 L97.578,49.251 L104.949,56.188 L114.544,46.473 L123.316,54.845 L129.804,54.845 L138.789,45.845 L145.294,51.343 L153.572,50.996 L160.754,44.093 L168.486,36.969 C167.175,32.601 163.438,29.9 156.577,26.883 L86.217,27.438 L85.791,19.657 C85.758,16.881 82.421,15.713 80.248,17.157 L72.328,23.626 C68.159,14.585 60.757,7.111 51.586,3.501 C47.433,1.758 43.001,0.97 38.58,1.001 z" fill-opacity="0" stroke="#545454" stroke-width="2" stroke-linecap="round" stroke-linejoin="round"/>
    </g>
    <g id="path4192">
      <path d="M30.11,39.801 C30.215,43.9 26.9,47.882 22.66,48.364 C19.239,48.823 15.664,47.005 14.089,44.017 C12.244,40.715 12.799,36.267 15.59,33.618 C17.855,31.368 21.508,30.505 24.536,31.709 C27.708,32.892 29.966,35.996 30.096,39.293 C30.106,39.463 30.11,39.632 30.11,39.802 z" fill="#15233B"/>
      <path d="M30.11,39.801 C30.215,43.9 26.9,47.882 22.66,48.364 C19.239,48.823 15.664,47.005 14.089,44.017 C12.244,40.715 12.799,36.267 15.59,33.618 C17.855,31.368 21.508,30.505 24.536,31.709 C27.708,32.892 29.966,35.996 30.096,39.293 C30.106,39.463 30.11,39.632 30.11,39.802 z" fill-opacity="0" stroke="#545454" stroke-width="2" stroke-linecap="round" stroke-linejoin="round"/>
    </g>
    <g id="path4201">
      <path d="M69.37,39.971 L165.771,38.71 L161.929,42.125 L80.07,43.322 z" fill="#FFEEAA"/>
      <path d="M69.37,39.971 L165.771,38.71 L161.929,42.125 L80.07,43.322 z" fill-opacity="0" stroke="#545454" stroke-width="1" stroke-linecap="round" stroke-linejoin="round"/>
    </g>
  </g>
</svg>
